<svg version="1.0" width="1000.000000pt" height="455.000000pt" viewBox="0 0 1000.000000 455.000000" preserveAspectRatio="xMidYMid meet" xmlns="http://www.w3.org/2000/svg">
<g transform="translate(0.000000,455.000000) scale(0.100000,-0.100000)" fill="var(--logo-color, #2196f3)" stroke="none">
<path d="M1370 2260 l0 -1330 325 0 325 0 0 995 0 995 185 0 185 0 0 -995 0 -995 295 0 295 0 0 995 0 995 190 0 190 0 0 -995 0 -995 325 0 325 0 -2 1208 -3 1207 -28 60 c-35 75 -87 130 -152 161 l-50 24 -1202 0 -1203 0 0 -1330z"></path>
<path d="M4330 2260 l0 -1330 325 0 325 0 0 1330 0 1330 -325 0 -325 0 0 -1330z"></path>
<path d="M5290 3290 l0 -300 795 0 795 0 0 -705 0 -705 -465 0 -465 0 0 520 0 520 -330 0 -330 0 0 -845 0 -845 1002 0 c1133 0 1083 -3 1164 74 79 76 75 9 72 1247 l-3 1094 -28 60 c-35 75 -87 130 -152 161 l-50 24 -1002 0 -1003 0 0 -300z"></path>
<path d="M7830 2260 l0 -1330 330 0 330 0 0 1330 0 1330 -330 0 -330 0 0 -1330z"></path>
</g>
</svg>